# AST/ASF file generated using VICON BodyLanguage
# -----------------------------------------------
:version 1.10
:name VICON
:units
  mass 1.0
  length 0.1
  angle deg
:documentation
   .ast/.asf automatically generated from VICON data using
   VICON BodyBuilder and BodyLanguage model FULLBODY5.MOD
:root
   order TX TY TZ RZ RY RX
   axis XYZ
   position 0 0 0  
   orientation 0 -0 0 
:bonedata
  begin
     id 1 
     name lhipjoint
     direction 0.961525 -0.229516 0.150972 
     length 0.502153 
     axis 0 -0 0  XYZ
  end
  begin
     id 2 
     name lfemur
     direction 0.173648 -0.984808 0  
     length 1.83052  
     axis 0 -0 10  XYZ
    dof rx ry rz
    limits (-180.0 180.0)
           (-180.0 180.0)
           (-180.0 180.0)
  end
  begin
     id 3 
     name ltibia
     direction 0.173629 -0.984811 0   
     length 1.50296   
     axis 0 -0 10   XYZ
    dof rx ry rz
    limits (-180.0 180.0)
           (-180.0 180.0)
           (-180.0 180.0)
  end
  begin
     id 4 
     name lfoot
     direction 7.59329e-012 -0.227408 0.9738   
     length 0.574743   
     axis -90 -1.73656e-015 10   XYZ
    dof rx ry rz
    limits (-180.0 180.0)
           (-180.0 180.0)
           (-180.0 180.0)
  end
  begin
     id 5 
     name ltoes
     direction 7.79885e-012 -4.41741e-011 1   
     length 0.28489   
     axis -90 -1.73656e-015 10   XYZ
    dof rx ry rz
    limits (-180.0 180.0)
           (-180.0 180.0)
           (-180.0 180.0)
  end
  begin
     id 6 
     name rhipjoint
     direction -0.970498 -0.201437 0.132502   
     length 0.572149  
     axis 0 -0 0  XYZ 
  end
  begin
     id 7 
     name rfemur
     direction -0.173648 -0.984808 0   
     length 1.71866   
     axis 0 -0 -10   XYZ
    dof rx ry rz
    limits (-180.0 180.0)
           (-180.0 180.0)
           (-180.0 180.0)
  end
  begin
     id 8 
     name rtibia
     direction -0.173624 -0.984812 0   
     length 1.42623   
     axis 0 -0 -10   XYZ
    dof rx ry rz
    limits (-180.0 180.0)
           (-180.0 180.0)
           (-180.0 180.0)
 end
 begin
     id 9 
     name rfoot
     direction -7.12931e-012 -0.404275 0.914637   
     length 0.524692  
     axis -90 1.73656e-015 -10   XYZ
    dof rx ry rz
    limits (-180.0 180.0)
           (-180.0 180.0)
           (-180.0 180.0)
  end
  begin
     id 10 
     name rtoes
     direction -7.79289e-012 -4.41454e-011 1   
     length 0.254983   
     axis -90 1.73656e-015 -10   XYZ
    dof rx ry rz
    limits (-180.0 180.0)
           (-180.0 180.0)
           (-180.0 180.0)
  end
  begin
     id 11 
     name lowerback
     direction -0.0214086 0.993738 0.109665   
     length 0.417614   
     axis 0 -0 0   XYZ
    dof rx ry rz
    limits (-180.0 180.0)
           (-180.0 180.0)
           (-180.0 180.0)
  end
  begin
     id 12 
     name upperback
     direction 8.15962e-005 0.99996 0.00893412   
     length 0.419234   
     axis 0 -0 0   XYZ
    dof rx ry rz
    limits (-180.0 180.0)
           (-180.0 180.0)
           (-180.0 180.0)
  end
  begin
     id 13 
     name thorax
     direction 0.00826031 0.999067 -0.0423848   
     length 0.424697   
     axis 0 -0 0   XYZ
    dof rx ry rz
    limits (-180.0 180.0)
           (-180.0 180.0)
           (-180.0 180.0)
  end
  begin
     id 14 
     name lowerneck
     direction -0.0196262 0.994272 -0.105058   
     length 0.355877   
     axis 0 -0 0   XYZ
    dof rx ry rz
    limits (-180.0 180.0)
           (-180.0 180.0)
           (-180.0 180.0)
  end
  begin
     id 15 
     name upperneck
     direction 0.000117372 0.999091 0.0426261   
     length 0.351054   
     axis 0 -0 0   XYZ
    dof rx ry rz
    limits (-180.0 180.0)
           (-180.0 180.0)
           (-180.0 180.0)
  end
  begin
     id 16
     name head
     direction 0.00157618 0.999651 0.0263619  
     length 0.374844  
     axis 0 -0 0   XYZ
    dof rx ry rz
    limits (-180.0 180.0)
           (-180.0 180.0)
           (-180.0 180.0)
  end
  begin
     id 17 
     name lshoulderjoint
     direction 0.981627 -0.190809 0  
     length 0.701763  
     axis 0 -0 -11   XYZ
    dof rx ry rz
    limits (-180.0 180.0)
           (-180.0 180.0)
           (-180.0 180.0)
  end
  begin
     id 18 
     name lhumerus
     direction 0.48481 -0.87462 -1.80676e-026   
     length 0.994704   
     axis -180 5.14477e-009 -151   XYZ
    dof rx ry rz
    limits (-180.0 180.0)
           (-180.0 180.0)
           (-180.0 180.0)
  end
  begin
     id 19
     name lradius
     direction 0.48481 -0.87462 -3.2569e-026   
     length 0.617638   
     axis -180 5.14477e-009 -151   XYZ
    dof rx ry rz
    limits (-180.0 180.0)
           (-180.0 180.0)
           (-180.0 180.0)
  end
  begin
     id 20
     name lwrist
     direction 0.48481 -0.87462 -6.73202e-026   
     length 0.308819   
     axis -180 5.14477e-009 -151   XYZ
    dof rx ry rz
    limits (-180.0 180.0)
           (-180.0 180.0)
           (-180.0 180.0)
  end
  begin
     id 21 
     name lhand
     direction 0.478366 -0.863761 -0.158376   
     length 0.291656   
     axis -180 5.14477e-009 -151   XYZ
    dof rx ry rz
    limits (-180.0 180.0)
           (-180.0 180.0)
           (-180.0 180.0)
  end
  begin
     id 22 
     name rshoulderjoint
     direction -0.981627 -0.190809 0   
     length 0.66654  
     axis 0 -0 11   XYZ 
    dof rx ry rz
    limits (-180.0 180.0)
           (-180.0 180.0)
           (-180.0 180.0)
  end
  begin
     id 23 
     name rhumerus
     direction -0.48481 -0.87462 1.77576e-026  
     length 1.15089   
     axis 180 5.14477e-009 151   XYZ
    dof rx ry rz
    limits (-180.0 180.0)
           (-180.0 180.0)
           (-180.0 180.0)
  end
  begin
     id 24 
     name rradius
     direction -0.48481 -0.87462 3.79421e-026   
     length 0.613887   
     axis 180 5.14477e-009 151   XYZ
    dof rx ry rz
    limits (-180.0 180.0)
           (-180.0 180.0)
           (-180.0 180.0)
  end
  begin
     id 25 
     name rwrist
     direction -0.48481 -0.87462 5.43623e-026   
     length 0.306944   
     axis 180 5.14477e-009 151   XYZ
    dof rx ry rz
    limits (-180.0 180.0)
           (-180.0 180.0)
           (-180.0 180.0)
  end
  begin
     id 26
     name rhand
     direction -0.479273 -0.864638 -0.150661   
     length 0.306429   
     axis 180 5.14477e-009 151   XYZ
    dof rx ry rz
    limits (-180.0 180.0)
           (-180.0 180.0)
           (-180.0 180.0)
  end
:hierarchy
  begin
    root lhipjoint rhipjoint lowerback 
    lhipjoint lfemur
    lfemur ltibia
    ltibia lfoot
    lfoot ltoes
    rhipjoint rfemur
    rfemur rtibia
    rtibia rfoot
    rfoot rtoes
    lowerback upperback
    upperback thorax
    thorax lowerneck lshoulderjoint rshoulderjoint
    lowerneck upperneck
    upperneck head
    lshoulderjoint lhumerus
    lhumerus lradius
    lradius lwrist
    lwrist lhand
    rshoulderjoint rhumerus
    rhumerus rradius
    rradius rwrist
    rwrist rhand
  end

:FULLY-SPECIFIED
:DEGREES
888
root -6.63885 3.5823 -0.571145 91.3349 -80.0813 90.7542
lowerback -11.0927 1.76258 0.68789
upperback -1.69252 2.23131 -0.645561
thorax 4.50023 1.09251 -0.732042
lowerneck 11.6017 -1.15866 -3.25335
upperneck -2.48655 -1.85469 3.22612
head -2.78543 -1.02163 1.74395
rshoulderjoint 1.39988 -3.61334 -32.194
rhumerus 5.15767 -10.6569 -56.1854
rradius 42.1736 3.33958e-014 -7.4743e-014
rwrist 1.15704e-013 8.27328 -1.67128e-013
rhand 7.28013 -6.83455 34.6896
lshoulderjoint 2.7799 11.1725 25.0684
lhumerus -5.72158 17.9067 49.9113
lradius 20.9685 -1.04958e-013 -1.28713e-014
lwrist 6.06965e-014 -5.36597 6.22938e-014
lhand 21.3879 5.18612 -10.8016
rfemur 1.10391 -0.230117 15.4947
rtibia -1.90833e-014 -9.93923e-016 5.56597e-015
rfoot -9.56757 16.0302 -7.79656
rtoes 4.49253e-014 4.47762e-014 -8.50798e-014
lfemur -32.8493 -11.115 -6.62183
ltibia 5.95841 -1.90833e-014 -1.11319e-014
lfoot -1.62905 -2.78862 18.7179
ltoes 9.85972e-014 -7.15625e-015 2.78299e-014
889
root -6.67738 3.57393 -0.567874 92.6026 -80.2218 92.1084
lowerback -11.0134 1.88983 0.811033
upperback -1.57756 2.39046 -0.647358
thorax 4.58482 1.1754 -0.779562
lowerneck 11.5039 -1.20381 -3.17565
upperneck -2.57014 -1.89889 3.20879
head -2.7942 -1.04224 1.72626
rshoulderjoint 1.42034 -3.66768 -32.1865
rhumerus 5.5669 -10.6554 -56.1941
rradius 42.3973 -6.04305e-014 1.11319e-013
rwrist -9.31807e-013 8.16514 3.74329e-013
rhand 7.26705 -6.75153 34.6058
lshoulderjoint 2.76781 11.0847 25.1148
lhumerus -5.93203 19.133 49.9069
lradius 20.9822 2.41722e-013 6.15984e-014
lwrist -9.00561e-013 -5.15673 -1.32529e-013
lhand 22.1891 4.95971 -10.1135
rfemur 1.8992 -0.011071 15.5163
rtibia -1.59028e-014 2.78299e-015 2.22639e-014
rfoot -9.95994 15.8406 -7.9625
rtoes -7.87187e-014 2.62793e-013 1.66979e-014
lfemur -30.852 -10.7294 -6.42841
ltibia 1.46306e-013 3.18055e-015 1.90833e-014
lfoot -0.680365 -3.12279 16.6137
ltoes -5.85222e-013 5.84427e-014 2.78299e-014
890
root -6.71596 3.56494 -0.56476 93.5251 -80.3645 93.0927
lowerback -10.9271 1.95828 0.862751
upperback -1.47813 2.47849 -0.627773
thorax 4.64416 1.2216 -0.775833
lowerneck 11.475 -1.20842 -3.15225
upperneck -2.69819 -1.89658 3.2165
head -2.83274 -1.04042 1.72616
rshoulderjoint 1.41375 -3.64714 -32.2049
rhumerus 5.9525 -10.7204 -56.2233
rradius 42.5716 -1.90833e-014 1.53462e-013
rwrist -9.95896e-013 8.0954 3.90327e-013
rhand 7.24902 -6.68152 34.4922
lshoulderjoint 2.74811 10.9889 25.134
lhumerus -6.13743 20.2001 49.8981
lradius 20.9494 1.84472e-013 9.48576e-015
lwrist -7.23916e-013 -4.9735 -1.78784e-013
lhand 22.6237 4.8875 -9.56316
rfemur 2.70629 0.140577 15.5235
rtibia -3.49861e-014 2.38542e-015 2.22639e-014
rfoot -10.3102 15.7153 -8.11442
rtoes -5.725e-014 1.94461e-013 -2.78299e-014
lfemur -31.405 -10.4276 -6.29917
ltibia 8.5875e-014 -3.02153e-014 1.03368e-014
lfoot -2.76427 -2.51686 14.6927
ltoes -3.56222e-013 -4.96962e-015 8.46823e-014
891
root -6.755 3.55567 -0.561477 94.2175 -80.5276 93.8703
lowerback -10.8025 2.02482 0.944418
upperback -1.38697 2.56042 -0.601164
thorax 4.67449 1.26523 -0.784028
lowerneck 11.4419 -1.2367 -3.14896
upperneck -2.83425 -1.92755 3.23784
head -2.87188 -1.05533 1.73621
rshoulderjoint 1.42927 -3.69041 -32.1884
rhumerus 6.30436 -10.7338 -56.2131
rradius 42.7085 9.54166e-015 5.08889e-014
rwrist -5.23558e-013 8.02516 1.3651e-013
rhand 7.20122 -6.65394 34.4153
lshoulderjoint 2.73494 10.9347 25.1349
lhumerus -6.31798 21.2488 49.8981
lradius 20.9092 3.49861e-014 -2.92462e-014
lwrist -2.89646e-013 -4.78816 -1.0373e-013
lhand 22.7432 4.59538 -9.11582
rfemur 1.86158 0.245553 15.5481
rtibia 3.68804 1.59028e-015 7.15625e-015
rfoot -12.7053 15.3579 -8.78076
rtoes 1.51076e-014 6.73383e-014 7.15625e-015
lfemur -31.7829 -10.2043 -6.2042
ltibia 6.67916e-014 -6.36111e-015 1.39149e-014
lfoot -4.66434 -2.41284 12.9767
ltoes -2.70347e-013 -1.67973e-014 5.56597e-015
892
root -6.79468 3.54634 -0.557538 94.7358 -80.6745 94.4033
lowerback -10.7017 2.07605 0.998854
upperback -1.33415 2.62614 -0.621222
thorax 4.67867 1.30001 -0.82806
lowerneck 11.4757 -1.2359 -3.14349
upperneck -2.95214 -1.9197 3.30365
head -2.91892 -1.05367 1.7595
rshoulderjoint 1.42793 -3.70129 -32.1135
rhumerus 6.56126 -10.8661 -56.2061
rradius 42.7991 1.17681e-013 4.77083e-015
rwrist -4.14281e-013 7.95744 -9.31328e-014
rhand 7.19433 -6.60021 34.3347
lshoulderjoint 2.72046 10.8631 25.1509
lhumerus -6.53643 22.4139 49.8347
lradius 20.8889 -1.145e-013 2.96686e-014
lwrist -2.7192e-013 -4.3341 1.14828e-013
lhand 22.7633 3.72419 -8.7007
rfemur 1.30748 0.304549 15.4701
rtibia 6.75035 7.95139e-016 1.11319e-014
rfoot -14.669 14.8069 -9.25923
rtoes -5.48646e-014 1.47598e-013 -1.03368e-014
lfemur -31.9973 -10.0685 -6.24341
ltibia 2.54444e-014 -2.8625e-014 -7.15625e-015
lfoot -6.3133 -1.57681 11.76
ltoes -1.27222e-013 2.56929e-014 -2.19657e-014
